<?xml version="1.0" encoding="UTF-8" standalone="no"?>
<!DOCTYPE svg PUBLIC "-//W3C//DTD SVG 1.1//EN"
 "http://www.w3.org/Graphics/SVG/1.1/DTD/svg11.dtd">
<!-- Generated by graphviz version 2.40.1 (20161225.0304)
 -->
<!-- Title: dependencies Pages: 1 -->
<svg width="2013pt" height="284pt"
 viewBox="0.00 0.00 2013.00 284.00" xmlns="http://www.w3.org/2000/svg" xmlns:xlink="http://www.w3.org/1999/xlink">
<g id="graph0" class="graph" transform="scale(1 1) rotate(0) translate(4 280)">
<title>dependencies</title>
<polygon fill="#ffffff" stroke="transparent" points="-4,4 -4,-280 2009,-280 2009,4 -4,4"/>
<text text-anchor="start" x="981.5091" y="-42.4" font-family="sans-serif" font-weight="bold" font-size="14.00" fill="#000000">Legend</text>
<polygon fill="#ffffb3" stroke="transparent" points="768.5,-10 768.5,-30 788.5,-30 788.5,-10 768.5,-10"/>
<text text-anchor="start" x="792.129" y="-15.4" font-family="sans-serif" font-size="14.00" fill="#000000"> &#160;Declarations</text>
<polygon fill="#8dd3c7" stroke="transparent" points="881.5,-10 881.5,-30 901.5,-30 901.5,-10 881.5,-10"/>
<text text-anchor="start" x="905.2251" y="-15.4" font-family="sans-serif" font-size="14.00" fill="#000000"> &#160;Module</text>
<polygon fill="#80b1d3" stroke="transparent" points="967.5,-10 967.5,-30 987.5,-30 987.5,-10 967.5,-10"/>
<text text-anchor="start" x="991.2812" y="-15.4" font-family="sans-serif" font-size="14.00" fill="#000000"> &#160;Bootstrap</text>
<polygon fill="#fdb462" stroke="transparent" points="1064.5,-10 1064.5,-30 1084.5,-30 1084.5,-10 1064.5,-10"/>
<text text-anchor="start" x="1088.1732" y="-15.4" font-family="sans-serif" font-size="14.00" fill="#000000"> &#160;Providers</text>
<polygon fill="#fb8072" stroke="transparent" points="1160.5,-10 1160.5,-30 1180.5,-30 1180.5,-10 1160.5,-10"/>
<text text-anchor="start" x="1184.2258" y="-15.4" font-family="sans-serif" font-size="14.00" fill="#000000"> &#160;Exports</text>
<g id="clust1" class="cluster">
<title>cluster_AppModule</title>
<polygon fill="none" stroke="#000000" stroke-dasharray="1,5" points="8,-70 8,-268 1997,-268 1997,-70 8,-70"/>
</g>
<g id="clust2" class="cluster">
<title>cluster_AppModule_declarations</title>
<polygon fill="none" stroke="#000000" points="615,-78 615,-130 1989,-130 1989,-78 615,-78"/>
</g>
<g id="clust12" class="cluster">
<title>cluster_AppModule_imports</title>
<polygon fill="none" stroke="#000000" points="463,-78 463,-130 607,-130 607,-78 463,-78"/>
</g>
<g id="clust14" class="cluster">
<title>cluster_AppModule_bootstrap</title>
<polygon fill="none" stroke="#000000" points="957,-208 957,-260 1081,-260 1081,-208 957,-208"/>
</g>
<g id="clust15" class="cluster">
<title>cluster_AppModule_providers</title>
<polygon fill="none" stroke="#000000" points="16,-78 16,-130 455,-130 455,-78 16,-78"/>
</g>
<!-- AppComponent -->
<g id="node1" class="node">
<title>AppComponent</title>
<polygon fill="#ffffb3" stroke="#000000" points="1980.9399,-122 1875.0601,-122 1875.0601,-86 1980.9399,-86 1980.9399,-122"/>
<text text-anchor="middle" x="1928" y="-99.8" font-family="Times,serif" font-size="14.00" fill="#000000">AppComponent</text>
</g>
<!-- AppModule -->
<g id="node10" class="node">
<title>AppModule</title>
<polygon fill="#8dd3c7" stroke="#000000" points="1060.6571,-187 1057.6571,-191 1036.6571,-191 1033.6571,-187 977.3429,-187 977.3429,-151 1060.6571,-151 1060.6571,-187"/>
<text text-anchor="middle" x="1019" y="-164.8" font-family="Times,serif" font-size="14.00" fill="#000000">AppModule</text>
</g>
<!-- AppComponent&#45;&gt;AppModule -->
<g id="edge1" class="edge">
<title>AppComponent&#45;&gt;AppModule</title>
<path fill="none" stroke="#000000" d="M1928,-122.0908C1928,-145.1328 1928,-182 1928,-182 1928,-182 1070.7194,-182 1070.7194,-182"/>
<polygon fill="#000000" stroke="#000000" points="1070.7194,-178.5001 1060.7194,-182 1070.7194,-185.5001 1070.7194,-178.5001"/>
</g>
<!-- HeaderComponent -->
<g id="node2" class="node">
<title>HeaderComponent</title>
<polygon fill="#ffffb3" stroke="#000000" points="1856.7437,-122 1735.2563,-122 1735.2563,-86 1856.7437,-86 1856.7437,-122"/>
<text text-anchor="middle" x="1796" y="-99.8" font-family="Times,serif" font-size="14.00" fill="#000000">HeaderComponent</text>
</g>
<!-- HeaderComponent&#45;&gt;AppModule -->
<g id="edge2" class="edge">
<title>HeaderComponent&#45;&gt;AppModule</title>
<path fill="none" stroke="#000000" d="M1796,-122.0449C1796,-143.6623 1796,-177 1796,-177 1796,-177 1070.7749,-177 1070.7749,-177"/>
<polygon fill="#000000" stroke="#000000" points="1070.7749,-173.5001 1060.7749,-177 1070.7749,-180.5001 1070.7749,-173.5001"/>
</g>
<!-- HighchartPlayerComponent -->
<g id="node3" class="node">
<title>HighchartPlayerComponent</title>
<polygon fill="#ffffb3" stroke="#000000" points="1717.573,-122 1544.427,-122 1544.427,-86 1717.573,-86 1717.573,-122"/>
<text text-anchor="middle" x="1631" y="-99.8" font-family="Times,serif" font-size="14.00" fill="#000000">HighchartPlayerComponent</text>
</g>
<!-- HighchartPlayerComponent&#45;&gt;AppModule -->
<g id="edge3" class="edge">
<title>HighchartPlayerComponent&#45;&gt;AppModule</title>
<path fill="none" stroke="#000000" d="M1631,-122.2228C1631,-142.3652 1631,-172 1631,-172 1631,-172 1071.0652,-172 1071.0652,-172"/>
<polygon fill="#000000" stroke="#000000" points="1071.0653,-168.5001 1061.0652,-172 1071.0652,-175.5001 1071.0653,-168.5001"/>
</g>
<!-- PlayerListComponent -->
<g id="node4" class="node">
<title>PlayerListComponent</title>
<polygon fill="#ffffb3" stroke="#000000" points="1526.3739,-122 1387.6261,-122 1387.6261,-86 1526.3739,-86 1526.3739,-122"/>
<text text-anchor="middle" x="1457" y="-99.8" font-family="Times,serif" font-size="14.00" fill="#000000">PlayerListComponent</text>
</g>
<!-- PlayerListComponent&#45;&gt;AppModule -->
<g id="edge4" class="edge">
<title>PlayerListComponent&#45;&gt;AppModule</title>
<path fill="none" stroke="#000000" d="M1457,-122.2222C1457,-140.8285 1457,-167 1457,-167 1457,-167 1070.9973,-167 1070.9973,-167"/>
<polygon fill="#000000" stroke="#000000" points="1070.9973,-163.5001 1060.9973,-167 1070.9972,-170.5001 1070.9973,-163.5001"/>
</g>
<!-- SigninComponent -->
<g id="node5" class="node">
<title>SigninComponent</title>
<polygon fill="#ffffb3" stroke="#000000" points="1369.8962,-122 1252.1038,-122 1252.1038,-86 1369.8962,-86 1369.8962,-122"/>
<text text-anchor="middle" x="1311" y="-99.8" font-family="Times,serif" font-size="14.00" fill="#000000">SigninComponent</text>
</g>
<!-- SigninComponent&#45;&gt;AppModule -->
<g id="edge5" class="edge">
<title>SigninComponent&#45;&gt;AppModule</title>
<path fill="none" stroke="#000000" d="M1311,-122.0336C1311,-139.0597 1311,-162 1311,-162 1311,-162 1070.8365,-162 1070.8365,-162"/>
<polygon fill="#000000" stroke="#000000" points="1070.8365,-158.5001 1060.8365,-162 1070.8364,-165.5001 1070.8365,-158.5001"/>
</g>
<!-- SignupComponent -->
<g id="node6" class="node">
<title>SignupComponent</title>
<polygon fill="#ffffb3" stroke="#000000" points="1234.5056,-122 1113.4944,-122 1113.4944,-86 1234.5056,-86 1234.5056,-122"/>
<text text-anchor="middle" x="1174" y="-99.8" font-family="Times,serif" font-size="14.00" fill="#000000">SignupComponent</text>
</g>
<!-- SignupComponent&#45;&gt;AppModule -->
<g id="edge6" class="edge">
<title>SignupComponent&#45;&gt;AppModule</title>
<path fill="none" stroke="#000000" d="M1174,-122.2396C1174,-137.5706 1174,-157 1174,-157 1174,-157 1070.9452,-157 1070.9452,-157"/>
<polygon fill="#000000" stroke="#000000" points="1070.9453,-153.5001 1060.9452,-157 1070.9452,-160.5001 1070.9453,-153.5001"/>
</g>
<!-- SinglePlayerComponent -->
<g id="node7" class="node">
<title>SinglePlayerComponent</title>
<polygon fill="#ffffb3" stroke="#000000" points="1095.3739,-122 942.6261,-122 942.6261,-86 1095.3739,-86 1095.3739,-122"/>
<text text-anchor="middle" x="1019" y="-99.8" font-family="Times,serif" font-size="14.00" fill="#000000">SinglePlayerComponent</text>
</g>
<!-- SinglePlayerComponent&#45;&gt;AppModule -->
<g id="edge7" class="edge">
<title>SinglePlayerComponent&#45;&gt;AppModule</title>
<path fill="none" stroke="#000000" d="M1019,-122.1061C1019,-122.1061 1019,-140.991 1019,-140.991"/>
<polygon fill="#000000" stroke="#000000" points="1015.5001,-140.9909 1019,-150.991 1022.5001,-140.991 1015.5001,-140.9909"/>
</g>
<!-- SingleTeamComponent -->
<g id="node8" class="node">
<title>SingleTeamComponent</title>
<polygon fill="#ffffb3" stroke="#000000" points="924.4832,-122 775.5168,-122 775.5168,-86 924.4832,-86 924.4832,-122"/>
<text text-anchor="middle" x="850" y="-99.8" font-family="Times,serif" font-size="14.00" fill="#000000">SingleTeamComponent</text>
</g>
<!-- SingleTeamComponent&#45;&gt;AppModule -->
<g id="edge8" class="edge">
<title>SingleTeamComponent&#45;&gt;AppModule</title>
<path fill="none" stroke="#000000" d="M850,-122.2396C850,-137.5706 850,-157 850,-157 850,-157 967.2247,-157 967.2247,-157"/>
<polygon fill="#000000" stroke="#000000" points="967.2247,-160.5001 977.2247,-157 967.2247,-153.5001 967.2247,-160.5001"/>
</g>
<!-- TeamListComponent -->
<g id="node9" class="node">
<title>TeamListComponent</title>
<polygon fill="#ffffb3" stroke="#000000" points="757.4832,-122 622.5168,-122 622.5168,-86 757.4832,-86 757.4832,-122"/>
<text text-anchor="middle" x="690" y="-99.8" font-family="Times,serif" font-size="14.00" fill="#000000">TeamListComponent</text>
</g>
<!-- TeamListComponent&#45;&gt;AppModule -->
<g id="edge9" class="edge">
<title>TeamListComponent&#45;&gt;AppModule</title>
<path fill="none" stroke="#000000" d="M690,-122.0336C690,-139.0597 690,-162 690,-162 690,-162 967.3319,-162 967.3319,-162"/>
<polygon fill="#000000" stroke="#000000" points="967.332,-165.5001 977.3319,-162 967.3319,-158.5001 967.332,-165.5001"/>
</g>
<!-- AppComponent  -->
<g id="node12" class="node">
<title>AppComponent </title>
<polygon fill="#80b1d3" stroke="#000000" points="1073.439,-252 964.561,-252 964.561,-216 1073.439,-216 1073.439,-252"/>
<text text-anchor="middle" x="1019" y="-229.8" font-family="Times,serif" font-size="14.00" fill="#000000">AppComponent </text>
</g>
<!-- AppModule&#45;&gt;AppComponent  -->
<g id="edge11" class="edge">
<title>AppModule&#45;&gt;AppComponent </title>
<path fill="none" stroke="#000000" stroke-dasharray="1,5" d="M1019,-187.1061C1019,-187.1061 1019,-205.991 1019,-205.991"/>
<polygon fill="#000000" stroke="#000000" points="1015.5001,-205.9909 1019,-215.991 1022.5001,-205.991 1015.5001,-205.9909"/>
</g>
<!-- AppRoutingModule -->
<g id="node11" class="node">
<title>AppRoutingModule</title>
<polygon fill="#8dd3c7" stroke="#000000" points="599.2744,-122 596.2744,-126 575.2744,-126 572.2744,-122 470.7256,-122 470.7256,-86 599.2744,-86 599.2744,-122"/>
<text text-anchor="middle" x="535" y="-99.8" font-family="Times,serif" font-size="14.00" fill="#000000">AppRoutingModule</text>
</g>
<!-- AppRoutingModule&#45;&gt;AppModule -->
<g id="edge10" class="edge">
<title>AppRoutingModule&#45;&gt;AppModule</title>
<path fill="none" stroke="#000000" d="M535,-122.2222C535,-140.8285 535,-167 535,-167 535,-167 967.3155,-167 967.3155,-167"/>
<polygon fill="#000000" stroke="#000000" points="967.3156,-170.5001 977.3155,-167 967.3155,-163.5001 967.3156,-170.5001"/>
</g>
<!-- AuthService -->
<g id="node13" class="node">
<title>AuthService</title>
<ellipse fill="#fdb462" stroke="#000000" cx="388" cy="-104" rx="59.1083" ry="18"/>
<text text-anchor="middle" x="388" y="-99.8" font-family="Times,serif" font-size="14.00" fill="#000000">AuthService</text>
</g>
<!-- AuthService&#45;&gt;AppModule -->
<g id="edge12" class="edge">
<title>AuthService&#45;&gt;AppModule</title>
<path fill="none" stroke="#000000" d="M388,-122.2228C388,-142.3652 388,-172 388,-172 388,-172 967.1097,-172 967.1097,-172"/>
<polygon fill="#000000" stroke="#000000" points="967.1097,-175.5001 977.1097,-172 967.1096,-168.5001 967.1097,-175.5001"/>
</g>
<!-- PlayersService -->
<g id="node14" class="node">
<title>PlayersService</title>
<ellipse fill="#fdb462" stroke="#000000" cx="242" cy="-104" rx="68.3324" ry="18"/>
<text text-anchor="middle" x="242" y="-99.8" font-family="Times,serif" font-size="14.00" fill="#000000">PlayersService</text>
</g>
<!-- PlayersService&#45;&gt;AppModule -->
<g id="edge13" class="edge">
<title>PlayersService&#45;&gt;AppModule</title>
<path fill="none" stroke="#000000" d="M242,-122.0449C242,-143.6623 242,-177 242,-177 242,-177 967.2251,-177 967.2251,-177"/>
<polygon fill="#000000" stroke="#000000" points="967.2251,-180.5001 977.2251,-177 967.2251,-173.5001 967.2251,-180.5001"/>
</g>
<!-- TeamsService -->
<g id="node15" class="node">
<title>TeamsService</title>
<ellipse fill="#fdb462" stroke="#000000" cx="90" cy="-104" rx="65.9658" ry="18"/>
<text text-anchor="middle" x="90" y="-99.8" font-family="Times,serif" font-size="14.00" fill="#000000">TeamsService</text>
</g>
<!-- TeamsService&#45;&gt;AppModule -->
<g id="edge14" class="edge">
<title>TeamsService&#45;&gt;AppModule</title>
<path fill="none" stroke="#000000" d="M90,-122.0908C90,-145.1328 90,-182 90,-182 90,-182 967.278,-182 967.278,-182"/>
<polygon fill="#000000" stroke="#000000" points="967.2781,-185.5001 977.278,-182 967.278,-178.5001 967.2781,-185.5001"/>
</g>
</g>
</svg>
